<svg xmlns="http://www.w3.org/2000/svg" viewBox="0 0 500 600">
  <rect width="500" height="600" fill="#eceae4"/>
  <circle cx="250" cy="230" r="120" fill="#c9c4b8"/>
  <path d="M250,120 C300,140 330,200 320,260 C355,270 380,320 360,380 C340,440 260,460 210,430 C160,460 100,430 100,370 C100,320 140,290 170,280 C150,220 190,150 250,120 Z" fill="#8a9a6b" opacity="0.85"/>
  <path d="M250,330 C280,310 320,330 320,370 C320,410 280,440 250,430 C220,440 180,410 180,370 C180,330 220,310 250,330 Z" fill="#b3492f" opacity="0.55"/>
  <rect x="0" y="600" width="500" height="0"/>
</svg>
